<svg id="SvgjsSvg1776" width="1005" height="512" xmlns="http://www.w3.org/2000/svg" version="1.1" xmlns:xlink="http://www.w3.org/1999/xlink" xmlns:svgjs="http://svgjs.com/svgjs"><defs id="SvgjsDefs1777"><marker id="SvgjsMarker1786" markerWidth="16" markerHeight="12" refX="16" refY="6" viewBox="0 0 16 12" orient="auto" markerUnits="userSpaceOnUse" stroke-dasharray="0,0"><path id="SvgjsPath1787" d="M0,2 L14,6 L0,11 L0,2" fill="#323232" stroke="#323232" stroke-width="2"></path></marker><marker id="SvgjsMarker1822" markerWidth="16" markerHeight="12" refX="16" refY="6" viewBox="0 0 16 12" orient="auto" markerUnits="userSpaceOnUse" stroke-dasharray="0,0"><path id="SvgjsPath1823" d="M0,2 L14,6 L0,11 L0,2" fill="#323232" stroke="#323232" stroke-width="2"></path></marker><marker id="SvgjsMarker1832" markerWidth="16" markerHeight="12" refX="16" refY="6" viewBox="0 0 16 12" orient="auto" markerUnits="userSpaceOnUse" stroke-dasharray="0,0"><path id="SvgjsPath1833" d="M0,2 L14,6 L0,11 L0,2" fill="#323232" stroke="#323232" stroke-width="2"></path></marker><marker id="SvgjsMarker1842" markerWidth="16" markerHeight="12" refX="16" refY="6" viewBox="0 0 16 12" orient="auto" markerUnits="userSpaceOnUse" stroke-dasharray="0,0"><path id="SvgjsPath1843" d="M0,2 L14,6 L0,11 L0,2" fill="#323232" stroke="#323232" stroke-width="2"></path></marker><marker id="SvgjsMarker1858" markerWidth="16" markerHeight="12" refX="16" refY="6" viewBox="0 0 16 12" orient="auto" markerUnits="userSpaceOnUse" stroke-dasharray="0,0"><path id="SvgjsPath1859" d="M0,2 L14,6 L0,11 L0,2" fill="#323232" stroke="#323232" stroke-width="2"></path></marker><marker id="SvgjsMarker1862" markerWidth="16" markerHeight="12" refX="16" refY="6" viewBox="0 0 16 12" orient="auto" markerUnits="userSpaceOnUse" stroke-dasharray="0,0"><path id="SvgjsPath1863" d="M0,2 L14,6 L0,11 L0,2" fill="#323232" stroke="#323232" stroke-width="2"></path></marker><marker id="SvgjsMarker1866" markerWidth="16" markerHeight="12" refX="16" refY="6" viewBox="0 0 16 12" orient="auto" markerUnits="userSpaceOnUse" stroke-dasharray="0,0"><path id="SvgjsPath1867" d="M0,2 L14,6 L0,11 L0,2" fill="#323232" stroke="#323232" stroke-width="2"></path></marker><marker id="SvgjsMarker1898" markerWidth="16" markerHeight="12" refX="16" refY="6" viewBox="0 0 16 12" orient="auto" markerUnits="userSpaceOnUse" stroke-dasharray="0,0"><path id="SvgjsPath1899" d="M0,2 L14,6 L0,11 L0,2" fill="#323232" stroke="#323232" stroke-width="2"></path></marker><marker id="SvgjsMarker1902" markerWidth="16" markerHeight="12" refX="16" refY="6" viewBox="0 0 16 12" orient="auto" markerUnits="userSpaceOnUse" stroke-dasharray="0,0"><path id="SvgjsPath1903" d="M0,2 L14,6 L0,11 L0,2" fill="#323232" stroke="#323232" stroke-width="2"></path></marker><marker id="SvgjsMarker1914" markerWidth="16" markerHeight="12" refX="16" refY="6" viewBox="0 0 16 12" orient="auto" markerUnits="userSpaceOnUse" stroke-dasharray="0,0"><path id="SvgjsPath1915" d="M0,2 L14,6 L0,11 L0,2" fill="#323232" stroke="#323232" stroke-width="2"></path></marker><marker id="SvgjsMarker1924" markerWidth="16" markerHeight="12" refX="16" refY="6" viewBox="0 0 16 12" orient="auto" markerUnits="userSpaceOnUse" stroke-dasharray="0,0"><path id="SvgjsPath1925" d="M0,2 L14,6 L0,11 L0,2" fill="#323232" stroke="#323232" stroke-width="2"></path></marker></defs><g id="SvgjsG1778" transform="translate(25,194)"><path id="SvgjsPath1779" d="M 0 35C 0 -11.666666666666666 70 -11.666666666666666 70 35C 70 81.66666666666667 0 81.66666666666667 0 35Z" stroke="rgba(50,50,50,1)" stroke-width="2" fill-opacity="1" fill="#ffffff"></path><g id="SvgjsG1780"><text id="SvgjsText1781" font-family="微软雅黑" text-anchor="middle" font-size="13px" width="50px" fill="#323232" font-weight="400" align="middle" anchor="middle" family="微软雅黑" size="13px" weight="400" font-style="" opacity="1" y="25.05" transform="rotate(0)"><tspan id="SvgjsTspan1782" dy="16" x="35"><tspan id="SvgjsTspan1783" style="text-decoration:;">user</tspan></tspan></text></g></g><g id="SvgjsG1784"><path id="SvgjsPath1785" d="M95 229L147 229L147 229L199 229" stroke="#323232" stroke-width="2" fill="none" marker-end="url(#SvgjsMarker1786)"></path></g><g id="SvgjsG1788" transform="translate(199,194)"><path id="SvgjsPath1789" d="M 0 0L 100 0L 100 70L 0 70Z" stroke="rgba(50,50,50,1)" stroke-width="2" fill-opacity="1" fill="#cc6600"></path><g id="SvgjsG1790"><text id="SvgjsText1791" font-family="微软雅黑" text-anchor="middle" font-size="13px" width="80px" fill="#323232" font-weight="400" align="middle" anchor="middle" family="微软雅黑" size="13px" weight="400" font-style="" opacity="1" y="25.05" transform="rotate(0)"><tspan id="SvgjsTspan1792" dy="16" x="50"><tspan id="SvgjsTspan1793" style="text-decoration:;">nginx集群</tspan></tspan></text></g></g><g id="SvgjsG1794" transform="translate(401,130)"><path id="SvgjsPath1795" d="M 0 0L 579 0L 579 357L 0 357Z" stroke="rgba(50,50,50,1)" stroke-width="2" fill-opacity="1" fill="#00cc00"></path><g id="SvgjsG1796"><text id="SvgjsText1797" font-family="微软雅黑" text-anchor="middle" font-size="13px" width="559px" fill="#323232" font-weight="400" align="middle" anchor="middle" family="微软雅黑" size="13px" weight="400" font-style="" opacity="1" y="168.55" transform="rotate(0)"></text></g></g><g id="SvgjsG1798" transform="translate(522,156)"><path id="SvgjsPath1799" d="M 0 0L 162 0L 162 146L 0 146Z" stroke="rgba(50,50,50,1)" stroke-width="2" fill-opacity="1" fill="#00ff80"></path><g id="SvgjsG1800"><text id="SvgjsText1801" font-family="微软雅黑" text-anchor="middle" font-size="13px" width="142px" fill="#323232" font-weight="400" align="middle" anchor="middle" family="微软雅黑" size="13px" weight="400" font-style="" opacity="1" y="63.05" transform="rotate(0)"></text></g></g><g id="SvgjsG1802" transform="translate(528,159)"><path id="SvgjsPath1803" d="M 0 35C 0 -11.666666666666666 70 -11.666666666666666 70 35C 70 81.66666666666667 0 81.66666666666667 0 35Z" stroke="rgba(50,50,50,1)" stroke-width="2" fill-opacity="1" fill="#ffffff"></path><g id="SvgjsG1804"><text id="SvgjsText1805" font-family="微软雅黑" text-anchor="middle" font-size="13px" width="50px" fill="#323232" font-weight="400" align="middle" anchor="middle" family="微软雅黑" size="13px" weight="400" font-style="" opacity="1" y="25.05" transform="rotate(0)"><tspan id="SvgjsTspan1806" dy="16" x="35"><tspan id="SvgjsTspan1807" style="text-decoration:;">eureka</tspan></tspan></text></g></g><g id="SvgjsG1808" transform="translate(606,159)"><path id="SvgjsPath1809" d="M 0 35C 0 -11.666666666666666 70 -11.666666666666666 70 35C 70 81.66666666666667 0 81.66666666666667 0 35Z" stroke="rgba(50,50,50,1)" stroke-width="2" fill-opacity="1" fill="#ffffff"></path><g id="SvgjsG1810"><text id="SvgjsText1811" font-family="微软雅黑" text-anchor="middle" font-size="13px" width="50px" fill="#323232" font-weight="400" align="middle" anchor="middle" family="微软雅黑" size="13px" weight="400" font-style="" opacity="1" y="25.05" transform="rotate(0)"><tspan id="SvgjsTspan1812" dy="16" x="35"><tspan id="SvgjsTspan1813" style="text-decoration:;">eureka</tspan></tspan></text></g></g><g id="SvgjsG1814" transform="translate(568,229)"><path id="SvgjsPath1815" d="M 0 35C 0 -11.666666666666666 70 -11.666666666666666 70 35C 70 81.66666666666667 0 81.66666666666667 0 35Z" stroke="rgba(50,50,50,1)" stroke-width="2" fill-opacity="1" fill="#ffffff"></path><g id="SvgjsG1816"><text id="SvgjsText1817" font-family="微软雅黑" text-anchor="middle" font-size="13px" width="50px" fill="#323232" font-weight="400" align="middle" anchor="middle" family="微软雅黑" size="13px" weight="400" font-style="" opacity="1" y="25.05" transform="rotate(0)"><tspan id="SvgjsTspan1818" dy="16" x="35"><tspan id="SvgjsTspan1819" style="text-decoration:;">eureka</tspan></tspan></text></g></g><g id="SvgjsG1820"><path id="SvgjsPath1821" d="M299 229L383.5 229L383.5 407.5L468 407.5" stroke="#323232" stroke-width="2" fill="none" marker-end="url(#SvgjsMarker1822)"></path></g><g id="SvgjsG1824" transform="translate(468,373)"><path id="SvgjsPath1825" d="M 0 0L 111 0L 111 69L 0 69Z" stroke="rgba(50,50,50,1)" stroke-width="2" fill-opacity="1" fill="#ff0080"></path><g id="SvgjsG1826"><text id="SvgjsText1827" font-family="微软雅黑" text-anchor="middle" font-size="13px" width="91px" fill="#323232" font-weight="400" align="middle" anchor="middle" family="微软雅黑" size="13px" weight="400" font-style="" opacity="1" y="24.55" transform="rotate(0)"><tspan id="SvgjsTspan1828" dy="16" x="55.5"><tspan id="SvgjsTspan1829" style="text-decoration:;">zuul/gateway</tspan></tspan></text></g></g><g id="SvgjsG1830"><path id="SvgjsPath1831" d="M579 407.5L603 407.5L603 407.5L627 407.5" stroke="#323232" stroke-width="2" fill="none" marker-end="url(#SvgjsMarker1832)"></path></g><g id="SvgjsG1834" transform="translate(627,372.5)"><path id="SvgjsPath1835" d="M 0 0L 100 0L 100 70L 0 70Z" stroke="rgba(50,50,50,1)" stroke-width="2" fill-opacity="1" fill="#990000"></path><g id="SvgjsG1836"><text id="SvgjsText1837" font-family="微软雅黑" text-anchor="middle" font-size="13px" width="80px" fill="#323232" font-weight="400" align="middle" anchor="middle" family="微软雅黑" size="13px" weight="400" font-style="" opacity="1" y="25.05" transform="rotate(0)"><tspan id="SvgjsTspan1838" dy="16" x="50"><tspan id="SvgjsTspan1839" style="text-decoration:;">api-xxx</tspan></tspan></text></g></g><g id="SvgjsG1840"><path id="SvgjsPath1841" d="M727 407.5L788 407.5L788 406" stroke="#323232" stroke-width="2" fill="none" marker-end="url(#SvgjsMarker1842)"></path></g><g id="SvgjsG1844" transform="translate(841,372.5)"><path id="SvgjsPath1845" d="M 0 0L 100 0L 100 70L 0 70Z" stroke="rgba(50,50,50,1)" stroke-width="2" fill-opacity="1" fill="#990000"></path><g id="SvgjsG1846"><text id="SvgjsText1847" font-family="微软雅黑" text-anchor="middle" font-size="13px" width="80px" fill="#323232" font-weight="400" align="middle" anchor="middle" family="微软雅黑" size="13px" weight="400" font-style="" opacity="1" y="25.05" transform="rotate(0)"><tspan id="SvgjsTspan1848" dy="16" x="50"><tspan id="SvgjsTspan1849" style="text-decoration:;">servicexxx</tspan></tspan></text></g></g><g id="SvgjsG1850" transform="translate(728,366)"><path id="SvgjsPath1851" d="M 0 0L 120 0L 120 40L 0 40Z" stroke="none" fill="none"></path><g id="SvgjsG1852"><text id="SvgjsText1853" font-family="微软雅黑" text-anchor="middle" font-size="13px" width="120px" fill="#323232" font-weight="400" align="middle" anchor="middle" family="微软雅黑" size="13px" weight="400" font-style="" opacity="1" y="10.05" transform="rotate(0)"><tspan id="SvgjsTspan1854" dy="16" x="60"><tspan id="SvgjsTspan1855" style="text-decoration:;">hystrix/sentinel</tspan></tspan></text></g></g><g id="SvgjsG1856"><path id="SvgjsPath1857" d="M788 406L788 407.5L841 407.5" stroke="#323232" stroke-width="2" fill="none" marker-end="url(#SvgjsMarker1858)"></path></g><g id="SvgjsG1860"><path id="SvgjsPath1861" d="M523.5 373L523.5 337.5L565 337.5L565 302" stroke="#323232" stroke-width="2" fill="none" marker-end="url(#SvgjsMarker1862)"></path></g><g id="SvgjsG1864"><path id="SvgjsPath1865" d="M677 372.5L677 337.25L630 337.25L630 302" stroke="#323232" stroke-width="2" fill="none" marker-end="url(#SvgjsMarker1866)"></path></g><g id="SvgjsG1868" transform="translate(423,251)"><path id="SvgjsPath1869" d="M 0 0L 138 0L 138 38L 0 38Z" stroke="none" fill="none"></path><g id="SvgjsG1870"><text id="SvgjsText1871" font-family="微软雅黑" text-anchor="middle" font-size="13px" width="138px" fill="#323232" font-weight="400" align="middle" anchor="middle" family="微软雅黑" size="13px" weight="400" font-style="" opacity="1" y="1.05" transform="rotate(0)"><tspan id="SvgjsTspan1872" dy="16" x="69"><tspan id="SvgjsTspan1873" style="text-decoration:;">或者nacos/zookeeper</tspan></tspan><tspan id="SvgjsTspan1874" dy="16" x="69"><tspan id="SvgjsTspan1875" style="text-decoration:;">集群</tspan></tspan></text></g></g><g id="SvgjsG1876" transform="translate(311,34)"><path id="SvgjsPath1877" d="M 0 0L 100 0L 100 70L 0 70Z" stroke="rgba(50,50,50,1)" stroke-width="2" fill-opacity="1" fill="#ffff33"></path><g id="SvgjsG1878"><text id="SvgjsText1879" font-family="微软雅黑" text-anchor="middle" font-size="13px" width="80px" fill="#323232" font-weight="400" align="middle" anchor="middle" family="微软雅黑" size="13px" weight="400" font-style="" opacity="1" y="9.05" transform="rotate(0)"><tspan id="SvgjsTspan1880" dy="16" x="50"><tspan id="SvgjsTspan1881" style="text-decoration:;">boot-admin</tspan></tspan><tspan id="SvgjsTspan1882" dy="16" x="50"><tspan id="SvgjsTspan1883" style="text-decoration:;">服务健康状态</tspan></tspan><tspan id="SvgjsTspan1884" dy="16" x="50"><tspan id="SvgjsTspan1885" style="text-decoration:;">监控</tspan></tspan></text></g></g><g id="SvgjsG1886" transform="translate(485,34)"><path id="SvgjsPath1887" d="M 0 0L 100 0L 100 70L 0 70Z" stroke="rgba(50,50,50,1)" stroke-width="2" fill-opacity="1" fill="#ff0000"></path><g id="SvgjsG1888"><text id="SvgjsText1889" font-family="微软雅黑" text-anchor="middle" font-size="13px" width="80px" fill="#323232" font-weight="400" align="middle" anchor="middle" family="微软雅黑" size="13px" weight="400" font-style="" opacity="1" y="9.05" transform="rotate(0)"><tspan id="SvgjsTspan1890" dy="16" x="50"><tspan id="SvgjsTspan1891" style="text-decoration:;">zipkin</tspan></tspan><tspan id="SvgjsTspan1892" dy="16" x="50"><tspan id="SvgjsTspan1893" style="text-decoration:;">sleuth（调用</tspan></tspan><tspan id="SvgjsTspan1894" dy="16" x="50"><tspan id="SvgjsTspan1895" style="text-decoration:;">链路追踪）</tspan></tspan></text></g></g><g id="SvgjsG1896"><path id="SvgjsPath1897" d="M361 104L361 185L522 185" stroke="#323232" stroke-width="2" fill="none" marker-end="url(#SvgjsMarker1898)"></path></g><g id="SvgjsG1900"><path id="SvgjsPath1901" d="M535 104L535 117L546 117L546 130" stroke="#323232" stroke-width="2" fill="none" marker-end="url(#SvgjsMarker1902)"></path></g><g id="SvgjsG1904" transform="translate(627,35)"><path id="SvgjsPath1905" d="M 0 0L 113 0L 113 68L 0 68Z" stroke="rgba(50,50,50,1)" stroke-width="2" fill-opacity="1" fill="#99ff33"></path><g id="SvgjsG1906"><text id="SvgjsText1907" font-family="微软雅黑" text-anchor="middle" font-size="13px" width="93px" fill="#323232" font-weight="400" align="middle" anchor="middle" family="微软雅黑" size="13px" weight="400" font-style="" opacity="1" y="16.05" transform="rotate(0)"><tspan id="SvgjsTspan1908" dy="16" x="56.5"><tspan id="SvgjsTspan1909" style="text-decoration:;">config-server</tspan></tspan><tspan id="SvgjsTspan1910" dy="16" x="56.5"><tspan id="SvgjsTspan1911" style="text-decoration:;">配置统一调配</tspan></tspan></text></g></g><g id="SvgjsG1912"><path id="SvgjsPath1913" d="M683.5 103L683.5 116.5L690.5 116.5L690.5 130" stroke="#323232" stroke-width="2" fill="none" marker-end="url(#SvgjsMarker1914)"></path></g><g id="SvgjsG1916" transform="translate(897,25)"><path id="SvgjsPath1917" d="M 0 35C 0 -11.666666666666666 70 -11.666666666666666 70 35C 70 81.66666666666667 0 81.66666666666667 0 35Z" stroke="rgba(51,51,255,1)" stroke-width="2" fill-opacity="1" fill="#99ff33"></path><g id="SvgjsG1918"><text id="SvgjsText1919" font-family="微软雅黑" text-anchor="middle" font-size="13px" width="50px" fill="#323232" font-weight="400" align="middle" anchor="middle" family="微软雅黑" size="13px" weight="400" font-style="" opacity="1" y="25.05" transform="rotate(0)"><tspan id="SvgjsTspan1920" dy="16" x="35"><tspan id="SvgjsTspan1921" style="text-decoration:;">git</tspan></tspan></text></g></g><g id="SvgjsG1922"><path id="SvgjsPath1923" d="M897 60L818.5 60L818.5 69L740 69" stroke="#323232" stroke-width="2" fill="none" marker-end="url(#SvgjsMarker1924)"></path></g><g id="SvgjsG1926" transform="translate(721,425)"><path id="SvgjsPath1927" d="M 0 0L 120 0L 120 40L 0 40Z" stroke="none" fill="none"></path><g id="SvgjsG1928"><text id="SvgjsText1929" font-family="微软雅黑" text-anchor="middle" font-size="13px" width="120px" fill="#323232" font-weight="400" align="middle" anchor="middle" family="微软雅黑" size="13px" weight="400" font-style="" opacity="1" y="-5.95" transform="rotate(0)"><tspan id="SvgjsTspan1930" dy="16" x="60"><tspan id="SvgjsTspan1931" style="text-decoration:;">RestTemplate</tspan></tspan><tspan id="SvgjsTspan1932" dy="16" x="60"><tspan id="SvgjsTspan1933" style="text-decoration:;">OpenFeign</tspan></tspan><tspan id="SvgjsTspan1934" dy="16" x="60"><tspan id="SvgjsTspan1935" style="text-decoration:;"> </tspan></tspan></text></g></g></svg>